<?xml version="1.0" encoding="UTF-8"?>
<svg version="1.1" xmlns="http://www.w3.org/2000/svg" width="500" height="500">
<path d="M0 0 C6.06599929 3.50840588 8.50521315 7.69836348 11.46560669 13.92196655 C12.20920944 15.41377945 12.20920944 15.41377945 12.96783447 16.93572998 C14.06848507 19.1473955 15.15975669 21.363746 16.24307251 23.58395386 C18.12012846 27.42910019 20.04550701 31.24911701 21.97634888 35.06747437 C25.9380338 42.90938797 29.86784499 50.76695045 33.79208374 58.62765503 C35.27316077 61.59243119 36.75722484 64.55570787 38.24125481 67.51900673 C39.69440657 70.42166782 41.14562353 73.325293 42.59628677 76.22919846 C43.27734193 77.59196501 43.9589671 78.95444689 44.64123154 80.31660843 C47.96800457 86.96111494 51.25425322 93.62369675 54.42752075 100.34310913 C54.90771667 101.35972122 55.3879126 102.37633331 55.88265991 103.42375183 C58.39216968 109.57221232 58.0070149 113.73363872 55.5642395 119.86679077 C53.59130984 124.21467106 51.37279432 128.42719753 49.14529419 132.64852905 C48.35277961 134.18620613 47.56201824 135.72478804 46.77297974 137.26425171 C44.54711085 141.59313895 42.28802843 145.90396446 40.02029419 150.21102905 C39.24758179 151.68611938 39.24758179 151.68611938 38.45925903 153.19100952 C36.88084977 156.20282982 35.29872432 159.21243513 33.69851685 162.21273804 C29.68672123 169.75366274 25.90504345 177.40930299 22.10244751 185.05697632 C18.51039234 192.2775786 14.87747061 199.46941368 11.08279419 206.58602905 C6.39928352 215.37154067 1.96833567 224.27906903 -2.46517944 233.19223022 C-6.656538 241.61461154 -10.91944766 249.98973884 -15.34298706 258.2930603 C-19.20360928 265.56688164 -22.85774091 272.94022194 -26.521698 280.31454468 C-29.57664402 286.44792126 -32.69874245 292.53699531 -35.91720581 298.58602905 C-39.89661017 306.06679244 -43.70790785 313.62361323 -47.47970581 321.21102905 C-51.6309908 329.56182773 -55.86111589 337.8572379 -60.24142456 346.0899353 C-64.13024298 353.428512 -67.81940466 360.86293764 -71.51461792 368.30038452 C-75.02291022 375.34402101 -78.63936349 382.32084652 -82.33126831 389.2696228 C-85.30058284 394.87515569 -88.15984107 400.52900709 -90.97970581 406.21102905 C-110.08396443 444.61862725 -110.08396443 444.61862725 -118.97970581 448.21102905 C-122.45750117 448.76881071 -125.87728422 448.74833674 -129.39376831 448.71273804 C-130.41742493 448.71814102 -131.44108154 448.72354401 -132.49575806 448.72911072 C-135.86570512 448.74157611 -139.23479423 448.72512078 -142.60470581 448.7071228 C-144.9544784 448.70727784 -147.30425125 448.70876761 -149.65402222 448.71153259 C-154.57324561 448.71291561 -159.49217709 448.70037426 -164.41134644 448.67758179 C-170.7095206 448.64919789 -177.00720988 448.65193599 -183.30541992 448.6646719 C-188.15593591 448.67163456 -193.0063403 448.66383299 -197.85684204 448.65141487 C-200.17881848 448.64690611 -202.50080692 448.64655853 -204.82278442 448.65048027 C-208.07065292 448.65339816 -211.31785866 448.63685702 -214.56564331 448.61508179 C-215.52065735 448.61958344 -216.47567139 448.62408508 -217.45962524 448.62872314 C-223.64905758 448.5599509 -228.88894245 447.93450439 -233.72189331 443.6758728 C-236.93010765 439.35031485 -238.59545768 436.65043204 -238.49923706 431.1133728 C-237.4362997 425.17530921 -234.11921019 419.95380646 -231.28927612 414.68954468 C-229.33445382 410.98981387 -227.48920773 407.2375821 -225.6335144 403.48739624 C-220.7763003 393.67368291 -215.77895703 383.94427797 -210.65158081 374.2696228 C-207.51771061 368.35153887 -204.43555853 362.40684302 -201.35470581 356.46102905 C-200.76995483 355.33269653 -200.18520386 354.20436401 -199.58273315 353.0418396 C-196.34176296 346.78367011 -193.10734204 340.52215523 -189.87814331 334.25790405 C-188.49534678 331.57560415 -187.1125383 328.89331042 -185.72970581 326.21102905 C-185.38637207 325.54498657 -185.04303833 324.87894409 -184.68930054 324.19271851 C-180.49460956 316.05716963 -176.27048006 307.93867441 -171.98654175 299.84970093 C-166.82167541 290.06408586 -161.79466791 280.20629375 -156.74972534 270.35848999 C-152.88898546 262.82851369 -148.9937328 255.31880591 -145.04220581 247.83602905 C-139.9388582 238.16959533 -134.95101846 228.44586902 -129.97970581 218.71102905 C-124.62363183 208.22274825 -119.23020746 197.75792602 -113.72970581 187.34457397 C-109.06817076 178.50677695 -104.52393148 169.60954596 -99.97970581 160.71102905 C-94.62363183 150.22274825 -89.23020746 139.75792602 -83.72970581 129.34457397 C-79.06817076 120.50677695 -74.52393148 111.60954596 -69.97970581 102.71102905 C-64.57751503 92.13244218 -59.13916831 81.57629533 -53.59347534 71.07211304 C-50.00588345 64.27378902 -46.47259974 57.44855571 -42.9576416 50.61245728 C-38.10134366 41.1702198 -33.23398079 31.73388194 -28.29220581 22.33602905 C-27.91902222 21.62511108 -27.54583862 20.91419312 -27.16134644 20.18173218 C-26.10912038 18.18692702 -25.04612785 16.19827663 -23.97970581 14.21102905 C-23.56140503 13.42051147 -23.14310425 12.6299939 -22.71212769 11.81552124 C-22.28093628 11.01533569 -21.84974487 10.21515015 -21.40548706 9.39071655 C-21.01659302 8.66352417 -20.62769897 7.93633179 -20.22702026 7.18710327 C-15.84062974 0.23790677 -7.85753329 -3.13145794 0 0 Z " fill="#FCFCFC" transform="translate(265.9797058105469,27.788970947265625)"/>
<path d="M0 0 C3.73114991 3.74834415 5.76004612 8.100567 8.10546875 12.8046875 C8.62359131 13.82175781 9.14171387 14.83882812 9.67553711 15.88671875 C11.30985108 19.10354202 12.92700455 22.32861403 14.54296875 25.5546875 C15.56317686 27.57062903 16.58399661 29.58626116 17.60546875 31.6015625 C21.36560188 39.053211 25.10779979 46.5095228 28.67724609 54.0546875 C34.55415608 66.46573163 40.61188053 78.77716497 46.76171875 91.0546875 C47.17491804 91.87965729 47.58811733 92.70462708 48.01383781 93.55459595 C51.02070941 99.55605151 54.03145164 105.55556202 57.04296875 111.5546875 C77.59447537 152.49454022 77.59447537 152.49454022 86.51123047 171.37805176 C87.96476822 174.44454865 89.44722633 177.49615175 90.93359375 180.546875 C97.54472223 194.13660417 103.93232134 207.81261234 110.1340332 221.59326172 C110.75469933 222.97234006 111.37538591 224.35140919 111.99609375 225.73046875 C112.29742722 226.40027771 112.59876068 227.07008667 112.90922546 227.76019287 C114.79517399 231.93876191 116.73449209 236.08769707 118.71484375 240.22265625 C119.18704346 241.21998779 119.65924316 242.21731934 120.14575195 243.24487305 C121.00009344 245.04341268 121.86726949 246.83594618 122.75073242 248.62036133 C125.81221537 255.11899765 126.78669048 260.82352231 124.48046875 267.7421875 C121.4019865 272.21095205 117.74122381 275.82193581 112.54296875 277.5546875 C111.06366299 277.65158611 109.58043095 277.6938458 108.09797668 277.70185852 C107.18827118 277.70901382 106.27856567 277.71616913 105.34129333 277.72354126 C103.84747887 277.72757462 103.84747887 277.72757462 102.32348633 277.73168945 C101.2727594 277.73826065 100.22203247 277.74483185 99.13946533 277.75160217 C95.65547618 277.77134356 92.17153018 277.78300025 88.6875 277.79296875 C86.90278069 277.79908204 86.90278069 277.79908204 85.08200645 277.80531883 C78.7834325 277.82618404 72.48488035 277.84048333 66.1862793 277.84985352 C59.6840613 277.86091344 53.18218594 277.89530772 46.680089 277.93502522 C41.67772287 277.96118638 36.67543839 277.96954499 31.67300987 277.97313499 C29.27647274 277.9780029 26.87993929 277.98962261 24.48346901 278.00817299 C21.12517892 278.03255076 17.76777553 278.0316013 14.40942383 278.0246582 C12.93079109 278.04387329 12.93079109 278.04387329 11.42228699 278.06347656 C3.83878049 278.00647481 -1.53236187 276.33138254 -7.08203125 271.0625 C-10.63481402 266.31657435 -12.9590243 260.77340932 -15.45703125 255.4296875 C-16.02099609 254.24117188 -16.58496094 253.05265625 -17.16601562 251.828125 C-21.70023809 242.26188275 -26.1412581 232.65129381 -30.58007812 223.04052734 C-34.29608522 215.00739436 -38.09925919 207.02061587 -41.95703125 199.0546875 C-46.9351046 188.77544469 -51.78019831 178.44104226 -56.56445312 168.0703125 C-59.32771188 162.09497478 -62.12188787 156.13736226 -64.98828125 150.2109375 C-65.28005249 149.60757568 -65.57182373 149.00421387 -65.87243652 148.38256836 C-67.26144133 145.51393358 -68.65595074 142.6481048 -70.05664062 139.78515625 C-71.54768414 136.71906676 -73.01220292 133.64280959 -74.45703125 130.5546875 C-74.946875 129.51054687 -75.43671875 128.46640625 -75.94140625 127.390625 C-76.4003125 126.36195313 -76.85921875 125.33328125 -77.33203125 124.2734375 C-77.94691406 122.9112207 -77.94691406 122.9112207 -78.57421875 121.52148438 C-81.10225973 113.02570063 -78.53026266 107.53312531 -74.67578125 99.96875 C-74.1796936 98.96518463 -73.68360596 97.96161926 -73.17248535 96.92764282 C-71.6175188 93.79455467 -70.03969991 90.67385954 -68.45703125 87.5546875 C-67.50621151 85.66258507 -66.55568128 83.77033713 -65.60546875 81.87792969 C-62.74992792 76.21444971 -59.85688191 70.57057875 -56.95703125 64.9296875 C-55.38453261 61.8672515 -53.81235547 58.8046507 -52.24032593 55.74197388 C-51.18494318 53.68599052 -50.12913929 51.63022329 -49.07290649 49.57467651 C-46.09652668 43.77586656 -43.14623569 37.96501902 -40.22735596 32.13705444 C-38.50619427 28.70135242 -36.77538623 25.27055636 -35.04370117 21.84014893 C-34.24376857 20.24878593 -33.44858034 18.65502811 -32.65844727 17.05877686 C-31.56984522 14.86082691 -30.46465376 12.67199229 -29.35546875 10.484375 C-29.04705048 9.85011597 -28.7386322 9.21585693 -28.42086792 8.56237793 C-25.54410823 2.96335774 -21.97761764 -0.33043775 -16.20703125 -2.8828125 C-10.3625984 -3.75947743 -5.129382 -3.01728353 0 0 Z " fill="#FCFCFC" transform="translate(346.45703125,197.4453125)"/>
<path d="M0 0 C4.2453811 1.20167212 6.68969908 4.89695686 8.8359375 8.56274414 C9.35542969 9.65707764 9.87492187 10.75141113 10.41015625 11.87890625 C10.84577377 12.7858448 10.84577377 12.7858448 11.29019165 13.71110535 C12.23638507 15.68806628 13.16712135 17.67187704 14.09765625 19.65625 C14.76140529 21.05148846 15.42596851 22.44633986 16.09130859 23.84082031 C20.90827002 33.96283986 25.62614006 44.13226856 30.32226562 54.31079102 C34.51544292 63.38937913 38.83966747 72.39990551 43.19897461 81.3996582 C48.90138901 93.2007168 54.40137279 105.09318229 59.88354492 116.99780273 C60.62520398 118.58357808 61.40040948 120.15487003 62.23168945 121.69555664 C63.70296064 124.92057312 63.77618387 128.17397081 63.09765625 131.59375 C60.56311968 134.81329645 58.9846832 136.29807435 55.09765625 137.59375 C53.29434884 137.68214244 51.48783793 137.70982616 49.68237305 137.70458984 C48.53775101 137.70335114 47.39312897 137.70211243 46.21382141 137.70083618 C44.9418541 137.69385712 43.66988678 137.68687805 42.359375 137.6796875 C40.9930581 137.67537074 39.62674027 137.67134141 38.26042175 137.66757202 C33.53944119 137.65184664 28.81856923 137.62299334 24.09765625 137.59375 C22.30421963 137.58336236 20.51078294 137.5729867 18.71734619 137.56262207 C7.86707592 137.49774837 -2.9828884 137.41185939 -13.83283806 137.30620193 C-19.02988882 137.2556599 -24.22690788 137.20915753 -29.42407227 137.171875 C-34.54327494 137.13509679 -39.66230842 137.08884913 -44.78136635 137.03568649 C-46.7122541 137.01721616 -48.64317686 137.00208131 -50.57411766 136.99040604 C-53.24514901 136.97359416 -55.91578352 136.94460132 -58.58666992 136.91259766 C-59.76842049 136.90935738 -59.76842049 136.90935738 -60.9740448 136.90605164 C-64.74164266 136.84814926 -67.75381148 136.79258232 -70.90234375 134.59375 C-73.38448444 131.68365402 -73.90234375 130.07270817 -73.90234375 126.23046875 C-72.94713169 119.72230044 -69.25722937 114.18516262 -66.08984375 108.53125 C-65.40370577 107.28385676 -64.71907344 106.03563423 -64.03588867 104.78662109 C-62.9956315 102.88499776 -61.95459844 100.98386448 -60.90882874 99.08526611 C-57.74885961 93.34525585 -54.71936275 87.54151993 -51.71484375 81.71875 C-47.46214601 73.51378613 -43.07541122 65.39272916 -38.61914062 57.296875 C-34.69497217 50.13055959 -30.92739265 42.8884024 -27.19317627 35.62207031 C-17.98997302 17.71747926 -17.98997302 17.71747926 -13.71484375 9.96875 C-13.20787964 9.02926514 -13.20787964 9.02926514 -12.69067383 8.07080078 C-9.39381785 2.1975659 -6.78924577 0.32394016 0 0 Z " fill="#FAFAFA" transform="translate(259.90234375,337.40625)"/>
</svg>
